<svg width="38" height="38" viewBox="0 0 38 38" fill="none" xmlns="http://www.w3.org/2000/svg">
<path fill-rule="evenodd" clip-rule="evenodd" d="M0 18.2366C0 9.6442 0 5.34375 2.67188 2.67188C5.34375 0 9.6442 0 18.2366 0H19.7634C28.3558 0 32.6562 0 35.3281 2.67188C38 5.34375 38 9.6442 38 18.2366V19.7634C38 28.3558 38 32.6562 35.3281 35.3281C32.6562 38 28.3558 38 19.7634 38H18.2366C9.6442 38 5.34375 38 2.67188 35.3281C0 32.6562 0 28.3558 0 19.7634V18.2366ZM7 12.3125C7 11.0358 8.03581 10 9.3125 10H29.3542C30.6309 10 31.6667 11.0358 31.6667 12.3125C31.6667 13.04 31.3246 13.7241 30.7417 14.1625L20.2583 22.025C19.7091 22.4345 18.9576 22.4345 18.4083 22.025L7.925 14.1625C7.34206 13.7241 7 13.04 7 12.3125ZM7 25.4167V15.3958L17.4833 23.2583C18.5818 24.0822 20.0849 24.0822 21.1833 23.2583L31.6667 15.3958V25.4167C31.6667 27.1173 30.284 28.5 28.5833 28.5H10.0833C8.38268 28.5 7 27.1173 7 25.4167Z" fill="black"/>
</svg>
