<svg width="38" height="38" viewBox="0 0 38 38" fill="none" xmlns="http://www.w3.org/2000/svg">
<path fill-rule="evenodd" clip-rule="evenodd" d="M2.67188 2.67188C0 5.34375 0 9.6442 0 18.2366V19.7634C0 28.3558 0 32.6562 2.67188 35.3281C5.34375 38 9.6442 38 18.2366 38H19.7634C28.3558 38 32.6562 38 35.3281 35.3281C38 32.6562 38 28.3558 38 19.7634V18.2366C38 9.6442 38 5.34375 35.3281 2.67188C32.6562 0 28.3558 0 19.7634 0H18.2366C9.6442 0 5.34375 0 2.67188 2.67188ZM25.3921 8.99154C28 10.7352 29.8228 13.4435 30.4339 16.5206C31.045 19.5976 30.4087 22.7914 28.665 25.3993C27.8016 26.6906 26.6923 27.7992 25.4005 28.6618C24.1086 29.5244 22.6596 30.1241 21.136 30.4267C18.0589 31.0378 14.8651 30.4015 12.2572 28.6578C9.64932 26.916 7.84015 24.2095 7.22772 21.1338C6.61528 18.0581 7.24975 14.8651 8.99154 12.2572C10.7333 9.64932 13.4398 7.84015 16.5155 7.22772C19.5912 6.61528 22.7842 7.24975 25.3921 8.99154ZM12.4425 14.5601C13.0035 13.7201 13.7244 12.9988 14.5641 12.4374C16.26 11.3037 18.3369 10.89 20.3377 11.2875C22.3386 11.685 24.0997 12.861 25.2335 14.5569C26.3673 16.2528 26.7809 18.3296 26.3834 20.3305C25.986 22.3314 24.8099 24.0925 23.114 25.2263C21.4181 26.3601 19.3413 26.7737 17.3404 26.3762C15.3395 25.9788 13.5784 24.8027 12.4447 23.1068C11.3109 21.4109 10.8972 19.3341 11.2947 17.3332C11.4915 16.3424 11.8815 15.4002 12.4425 14.5601ZM28.2104 7.81492C28.4267 8.31955 28.7871 8.7521 29.2341 9.05488H29.2485C29.6955 9.35765 30.2289 9.51625 30.7768 9.51625C31.1373 9.51625 31.4977 9.44416 31.8293 9.29998C32.161 9.1558 32.4782 8.95395 32.7233 8.69442C32.9684 8.4349 33.1846 8.13212 33.3144 7.80051C33.4442 7.46889 33.5163 7.10844 33.5163 6.74799C33.5163 6.2001 33.3577 5.66663 33.0549 5.21967C32.7521 4.77271 32.3196 4.42668 31.8149 4.21041C31.3103 3.99414 30.748 3.95088 30.2145 4.05181C29.6811 4.15274 29.1764 4.41226 28.8015 4.80155C28.4267 5.19084 28.1527 5.66663 28.0518 6.21452C27.9509 6.76241 27.9941 7.31029 28.2104 7.81492Z" fill="black"/>
</svg>
