<svg width="2480" height="1749" viewBox="0 0 2480 1749" fill="none" xmlns="http://www.w3.org/2000/svg">
<rect width="2480" height="1748" transform="translate(0 0.6875)" fill="white"/>
<path fill-rule="evenodd" clip-rule="evenodd" d="M1258.94 720.949C1270.33 699.863 1297.77 671.976 1352.9 659.316C1353.07 659.81 1353.26 660.333 1353.46 660.886V660.886C1359.93 678.889 1377.5 727.793 1359.35 776.384C1381.09 802.954 1394.13 836.918 1394.13 873.928C1394.13 959.052 1325.13 1028.06 1240 1028.06C1154.88 1028.06 1085.87 959.052 1085.87 873.928C1085.87 837.253 1098.68 803.57 1120.07 777.108C1108.7 752.206 1106.58 715.257 1126.12 659.316C1150.01 659.316 1198.81 686.464 1221.06 720.949C1227.27 720.189 1233.59 719.797 1240 719.797C1246.41 719.797 1252.73 720.188 1258.94 720.949ZM1271.57 742.504C1271.73 742.573 1271.89 742.643 1272.05 742.714C1272.05 742.683 1272.05 742.652 1272.05 742.621C1297.14 748.723 1319.48 761.825 1336.9 779.741C1329.43 789.544 1319.2 796.706 1307.68 803.993C1275.05 824.641 1267.39 840.627 1261.39 855.613C1256.49 867.869 1256.78 902.94 1256.93 920.569V920.57V920.57C1256.96 924.497 1256.99 927.559 1256.95 929.31C1254.44 930.025 1244.92 936.761 1240.47 940.039C1236.08 937.143 1226.48 930.943 1223.14 929.31C1223.14 928.375 1223.16 926.894 1223.19 924.981C1223.4 910.301 1223.98 870.15 1218.1 855.613C1211.46 839.182 1198.17 818.767 1172.76 803.993C1162.42 797.98 1151.31 791.363 1143.19 779.652C1160.86 761.509 1183.59 748.316 1209.09 742.348C1209.11 742.47 1209.13 742.592 1209.15 742.714C1210.09 742.351 1211.07 742.009 1212.07 741.688C1221.08 739.793 1230.42 738.797 1240 738.797C1250.87 738.797 1261.44 740.08 1271.57 742.504ZM1201.48 724.65C1185.84 702.034 1151.5 683.916 1138.39 682.102C1129.57 719.199 1129.7 744.003 1134.69 761.388C1153.24 744.017 1176.1 731.182 1201.48 724.65ZM1130.74 794.4C1121.88 806.546 1115 820.226 1110.57 834.966C1139.56 839.797 1189.14 857.083 1203.5 897.03C1206.97 857.504 1189.65 834.981 1157.3 816.501C1147.99 811.181 1138.59 804.122 1130.74 794.4ZM1106.65 851.968C1105.48 859.115 1104.87 866.451 1104.87 873.928C1104.87 880.131 1105.29 886.237 1106.1 892.219C1125.65 894.73 1165.84 902.116 1192.53 914.75C1184.61 892.302 1165.04 864.546 1106.65 851.968ZM1110.17 911.525C1114.81 927.585 1122.35 942.414 1132.19 955.409C1150 972.929 1181.31 984.6 1223.14 951.64C1198.21 929.76 1133.82 914.779 1110.17 911.525ZM1172.82 991.202C1193.39 990.473 1225.72 977.357 1240.47 962.613C1271.48 933.324 1335.63 917.282 1369.73 911.872C1353.33 968.032 1301.46 1009.06 1240 1009.06C1215.55 1009.06 1192.61 1002.56 1172.82 991.202ZM1373.89 892.362C1374.71 886.334 1375.13 880.181 1375.13 873.928C1375.13 866.372 1374.51 858.961 1373.32 851.743C1348.27 856.123 1300.95 873.783 1288.07 914.75C1311.25 903.956 1345.9 895.012 1373.89 892.362ZM1369.29 834.507C1364.93 820.196 1358.27 806.892 1349.72 795.03C1339.28 807.748 1321.3 817.979 1313.13 822.259C1304.06 827.013 1271.64 849.487 1275.53 897.03C1284.77 876.027 1314.84 841.959 1369.29 834.507ZM1346.05 762.078C1327.36 744.349 1304.22 731.256 1278.49 724.641C1293.91 700.854 1332.11 683.985 1340.99 682.102C1351.05 720.047 1351.61 744.595 1346.05 762.078Z" fill="#D9D9D9"/>
<path d="M1012.37 1115.03V1104.44H1015.31C1017.3 1104.44 1019.03 1103.97 1020.52 1103.03C1022 1102.09 1022.74 1100.57 1022.74 1098.47C1022.74 1096.66 1022.08 1095.17 1020.74 1094.02C1019.43 1092.82 1017.82 1092.22 1015.9 1092.22C1013.48 1092.22 1010.44 1093.4 1006.78 1095.75L1000.92 1085.55C1006.02 1081.49 1011.7 1079.47 1017.97 1079.47C1023.72 1079.47 1028.48 1080.97 1032.25 1083.97C1036.05 1086.94 1037.95 1090.96 1037.95 1096.03C1037.95 1101.17 1035.2 1105.33 1029.69 1108.51C1037.04 1111.23 1040.72 1116.13 1040.72 1123.23C1040.72 1128.51 1038.65 1132.89 1034.53 1136.37C1030.4 1139.84 1024.7 1141.58 1017.42 1141.58C1009.42 1141.58 1002.82 1139.33 997.606 1134.85L1005.8 1124.53C1009.32 1127.14 1012.65 1128.44 1015.79 1128.44C1018.33 1128.44 1020.34 1127.84 1021.82 1126.65C1023.31 1125.42 1024.05 1123.84 1024.05 1121.92C1024.05 1120.08 1023.34 1118.47 1021.93 1117.09C1020.55 1115.72 1018.65 1115.03 1016.23 1115.03H1012.37ZM1096.21 1080.99H1110.97V1140.06H1096.21V1133.81C1093.31 1136.57 1090.4 1138.56 1087.46 1139.79C1084.57 1140.98 1081.42 1141.58 1078.02 1141.58C1070.38 1141.58 1063.77 1138.63 1058.2 1132.73C1052.62 1126.79 1049.84 1119.43 1049.84 1110.63C1049.84 1101.51 1052.53 1094.03 1057.93 1088.21C1063.32 1082.38 1069.87 1079.47 1077.58 1079.47C1081.13 1079.47 1084.46 1080.14 1087.57 1081.47C1090.69 1082.81 1093.56 1084.82 1096.21 1087.5V1080.99ZM1080.62 1093.15C1076.03 1093.15 1072.21 1094.78 1069.17 1098.03C1066.13 1101.26 1064.61 1105.4 1064.61 1110.47C1064.61 1115.57 1066.14 1119.77 1069.22 1123.06C1072.33 1126.36 1076.15 1128.01 1080.68 1128.01C1085.35 1128.01 1089.22 1126.39 1092.3 1123.17C1095.37 1119.92 1096.91 1115.66 1096.91 1110.41C1096.91 1105.27 1095.37 1101.11 1092.3 1097.93C1089.22 1094.74 1085.33 1093.15 1080.62 1093.15ZM1125.9 1080.99H1160.38V1095.1H1140.78V1140.06H1125.9V1080.99ZM1185.2 1080.99V1087.5C1187.87 1084.82 1190.77 1082.81 1193.88 1081.47C1197 1080.14 1200.33 1079.47 1203.87 1079.47C1211.58 1079.47 1218.13 1082.38 1223.53 1088.21C1228.92 1094.03 1231.62 1101.51 1231.62 1110.63C1231.62 1119.43 1228.83 1126.79 1223.26 1132.73C1217.68 1138.63 1211.08 1141.58 1203.44 1141.58C1200.04 1141.58 1196.87 1140.98 1193.94 1139.79C1191 1138.56 1188.09 1136.57 1185.2 1133.81V1161.67H1170.48V1080.99H1185.2ZM1200.78 1093.15C1196.11 1093.15 1192.24 1094.74 1189.16 1097.93C1186.08 1101.11 1184.54 1105.27 1184.54 1110.41C1184.54 1115.66 1186.08 1119.92 1189.16 1123.17C1192.24 1126.39 1196.11 1128.01 1200.78 1128.01C1205.3 1128.01 1209.1 1126.36 1212.18 1123.06C1215.29 1119.77 1216.85 1115.57 1216.85 1110.47C1216.85 1105.4 1215.33 1101.26 1212.29 1098.03C1209.25 1094.78 1205.41 1093.15 1200.78 1093.15ZM1237.32 1080.99H1252.47L1267.83 1118.07L1284.77 1080.99H1299.97L1262.95 1161.67H1247.63L1259.8 1135.66L1237.32 1080.99ZM1318.27 1115.03V1104.44H1321.2C1323.19 1104.44 1324.93 1103.97 1326.42 1103.03C1327.9 1102.09 1328.64 1100.57 1328.64 1098.47C1328.64 1096.66 1327.97 1095.17 1326.63 1094.02C1325.33 1092.82 1323.72 1092.22 1321.8 1092.22C1319.38 1092.22 1316.34 1093.4 1312.68 1095.75L1306.82 1085.55C1311.92 1081.49 1317.6 1079.47 1323.86 1079.47C1329.62 1079.47 1334.38 1080.97 1338.14 1083.97C1341.94 1086.94 1343.84 1090.96 1343.84 1096.03C1343.84 1101.17 1341.09 1105.33 1335.59 1108.51C1342.94 1111.23 1346.61 1116.13 1346.61 1123.23C1346.61 1128.51 1344.55 1132.89 1340.42 1136.37C1336.3 1139.84 1330.6 1141.58 1323.32 1141.58C1315.32 1141.58 1308.72 1139.33 1303.5 1134.85L1311.7 1124.53C1315.21 1127.14 1318.54 1128.44 1321.69 1128.44C1324.23 1128.44 1326.24 1127.84 1327.72 1126.65C1329.2 1125.42 1329.95 1123.84 1329.95 1121.92C1329.95 1120.08 1329.24 1118.47 1327.83 1117.09C1326.45 1115.72 1324.55 1115.03 1322.13 1115.03H1318.27ZM1358.45 1080.99H1373.27V1103.08L1393.69 1080.99H1411.77L1385.43 1109.76L1412.09 1140.06H1392.44L1374.85 1119.21L1373.27 1121.06V1140.06H1358.45V1080.99ZM1461.83 1080.99H1476.6V1140.06H1461.83V1133.81C1458.93 1136.57 1456.02 1138.56 1453.09 1139.79C1450.19 1140.98 1447.04 1141.58 1443.64 1141.58C1436 1141.58 1429.4 1138.63 1423.82 1132.73C1418.25 1126.79 1415.46 1119.43 1415.46 1110.63C1415.46 1101.51 1418.16 1094.03 1423.55 1088.21C1428.94 1082.38 1435.49 1079.47 1443.2 1079.47C1446.75 1079.47 1450.08 1080.14 1453.19 1081.47C1456.31 1082.81 1459.19 1084.82 1461.83 1087.5V1080.99ZM1446.24 1093.15C1441.65 1093.15 1437.83 1094.78 1434.79 1098.03C1431.75 1101.26 1430.23 1105.4 1430.23 1110.47C1430.23 1115.57 1431.77 1119.77 1434.84 1123.06C1437.96 1126.36 1441.77 1128.01 1446.3 1128.01C1450.97 1128.01 1454.84 1126.39 1457.92 1123.17C1460.99 1119.92 1462.53 1115.66 1462.53 1110.41C1462.53 1105.27 1460.99 1101.11 1457.92 1097.93C1454.84 1094.74 1450.95 1093.15 1446.24 1093.15Z" fill="#D9D9D9"/>
</svg>
