<svg width="38" height="38" viewBox="0 0 38 38" fill="none" xmlns="http://www.w3.org/2000/svg">
<path fill-rule="evenodd" clip-rule="evenodd" d="M0 18.2366C0 9.6442 0 5.34375 2.67188 2.67188C5.34375 0 9.6442 0 18.2366 0H19.7634C28.3558 0 32.6562 0 35.3281 2.67188C38 5.34375 38 9.6442 38 18.2366V19.7634C38 28.3558 38 32.6562 35.3281 35.3281C32.6562 38 28.3558 38 19.7634 38H18.2366C9.6442 38 5.34375 38 2.67188 35.3281C0 32.6562 0 28.3558 0 19.7634V18.2366ZM26.6978 26.1557C27.3676 22.57 28.6907 14.7944 28.9929 11.5927C29.0099 11.3225 28.9962 11.0512 28.9521 10.7841C28.928 10.5725 28.8261 10.3775 28.6662 10.2369C28.4212 10.0408 28.0536 10 27.8821 10C27.1225 10.0163 25.9545 10.4247 20.327 12.7607C18.3559 13.5829 14.4191 15.279 8.51657 17.8491C7.55278 18.2303 7.04911 18.6033 7.00555 18.9681C6.92615 19.5889 7.70796 19.8333 8.76465 20.1636C8.90362 20.207 9.04734 20.252 9.19448 20.2994C10.2318 20.6343 11.6203 21.0264 12.3472 21.0427C13.0061 21.059 13.7384 20.7895 14.5443 20.2341C20.0602 16.5096 22.908 14.6283 23.0877 14.5902C23.0932 14.5891 23.0987 14.588 23.1044 14.5869C23.2255 14.5624 23.3872 14.5296 23.5042 14.6311C23.6268 14.7372 23.6186 14.9333 23.6023 14.9904C23.5267 15.3178 20.4338 18.1919 18.8809 19.635C18.4188 20.0644 18.093 20.3671 18.0237 20.4383C17.8648 20.6041 17.7026 20.761 17.5468 20.9117C16.5895 21.8377 15.87 22.5336 17.5908 23.6645C18.3693 24.181 19.0027 24.6125 19.6274 25.038C20.3858 25.5546 21.1313 26.0625 22.1076 26.7029C22.3443 26.8585 22.5703 27.0197 22.7901 27.1765C23.632 27.7772 24.3849 28.3144 25.3175 28.2302C25.8565 28.1812 26.4119 27.6748 26.6978 26.1557Z" fill="black"/>
</svg>
