<svg width="38" height="38" viewBox="0 0 38 38" fill="none" xmlns="http://www.w3.org/2000/svg">
<path d="M2.67187 2.67187C0 5.34375 0 9.6442 0 18.2366V19.7634C0 28.3558 0 32.6562 2.67187 35.3281C5.34375 38 9.6442 38 18.2366 38H19.7634C28.3558 38 32.6562 38 35.3281 35.3281C38 32.6562 38 28.3558 38 19.7634V18.2366C38 9.6442 38 5.34375 35.3281 2.67187C32.6562 0 28.3558 0 19.7634 0H18.2366C9.6442 0 5.34375 0 2.67187 2.67187ZM6.4125 11.5612H10.7469C10.8911 18.8134 14.0888 21.8839 16.625 22.5116V11.5612H20.7134V17.8125C23.2156 17.5411 25.8366 14.6911 26.7272 11.5612H30.8156C30.4763 13.1812 29.8147 14.725 28.8562 16.0821C27.8978 17.4393 26.6763 18.5844 25.2513 19.4411C26.8375 20.2299 28.2371 21.3411 29.3567 22.7152C30.4848 24.0808 31.2991 25.667 31.7656 27.3719H27.2616C26.8545 25.896 26.0062 24.5643 24.8442 23.5634C23.6737 22.554 22.2402 21.9179 20.7134 21.7228V27.3719H20.2214C11.5612 27.3719 6.61607 21.4344 6.4125 11.5612Z" fill="black"/>
</svg>
